<svg xmlns="http://www.w3.org/2000/svg" width="1440" height="960" viewBox="0 0 1440 960">
  <rect width="1440" height="960" fill="#f1f4f8"/>
  <rect x="72" y="58" width="1296" height="844" rx="36" fill="#ffffff" stroke="#d6dde6"/>
  <rect x="118" y="104" width="1204" height="96" rx="26" fill="#24364f"/>
  <text x="156" y="164" fill="#ffffff" font-family="Arial" font-size="32" font-weight="700">Deshar</text>
  <text x="306" y="162" fill="#cbd7e8" font-family="Arial" font-size="18">кабинет ученика</text>
  <rect x="118" y="244" width="450" height="564" rx="32" fill="#eef4fb"/>
  <text x="164" y="310" fill="#24364f" font-family="Arial" font-size="36" font-weight="700">Что сегодня</text>
  <text x="164" y="352" fill="#65758d" font-family="Arial" font-size="19">простая страница без перегруза</text>
  <rect x="164" y="406" width="344" height="94" rx="24" fill="#ffffff"/>
  <text x="198" y="444" fill="#65758d" font-family="Arial" font-size="16">Следующее занятие</text>
  <text x="198" y="478" fill="#24364f" font-family="Arial" font-size="22" font-weight="700">Коран B · завтра 12:30</text>
  <rect x="164" y="530" width="344" height="94" rx="24" fill="#ffffff"/>
  <text x="198" y="568" fill="#65758d" font-family="Arial" font-size="16">Домашнее задание</text>
  <text x="198" y="602" fill="#24364f" font-family="Arial" font-size="22" font-weight="700">Повторить страницу 18</text>
  <rect x="164" y="654" width="344" height="94" rx="24" fill="#ffffff"/>
  <text x="198" y="692" fill="#65758d" font-family="Arial" font-size="16">Оплата</text>
  <text x="198" y="726" fill="#24364f" font-family="Arial" font-size="22" font-weight="700">Все спокойно</text>
  <rect x="608" y="244" width="714" height="258" rx="32" fill="#ffffff" stroke="#d6dde6"/>
  <text x="654" y="308" fill="#24364f" font-family="Arial" font-size="30" font-weight="700">Прогресс</text>
  <rect x="654" y="356" width="586" height="20" rx="10" fill="#e5edf6"/>
  <rect x="654" y="356" width="390" height="20" rx="10" fill="#5b78a1"/>
  <text x="654" y="420" fill="#65758d" font-family="Arial" font-size="18">Таджвид: хорошо, повторить правила мадда</text>
  <rect x="608" y="548" width="714" height="260" rx="32" fill="#fff8e8" stroke="#eadfbe"/>
  <text x="654" y="612" fill="#57451e" font-family="Arial" font-size="30" font-weight="700">Материалы</text>
  <rect x="654" y="656" width="248" height="78" rx="20" fill="#ffffff"/>
  <rect x="930" y="656" width="248" height="78" rx="20" fill="#ffffff"/>
  <text x="684" y="704" fill="#24364f" font-family="Arial" font-size="18">Сура Аль-Фатиха</text>
  <text x="960" y="704" fill="#24364f" font-family="Arial" font-size="18">Правила чтения</text>
  <text x="118" y="862" fill="#65758d" font-family="Arial" font-size="15">Вариант 07: ученик видит только важное, мягкий синий и ясная структура</text>
</svg>
